<?xml version="1.0" standalone="no"?>
<!DOCTYPE svg PUBLIC "-//W3C//DTD SVG 20010904//EN"
 "http://www.w3.org/TR/2001/REC-SVG-20010904/DTD/svg10.dtd">
<svg version="1.0" xmlns="http://www.w3.org/2000/svg"
 width="1242.000000pt" height="1242.000000pt" viewBox="0 0 1242.000000 1242.000000"
 preserveAspectRatio="xMidYMid meet">
<metadata>
Created by potrace 1.14, written by Peter Selinger 2001-2017
</metadata>
<g transform="translate(0.000000,1242.000000) scale(0.100000,-0.100000)"
fill="#000000" stroke="none">
<path d="M4904 12092 c-6 -4 -33 -88 -59 -187 -26 -99 -59 -220 -72 -270 -13
-49 -26 -97 -28 -105 -2 -8 -4 -15 -5 -15 -1 0 -3 -7 -5 -15 -9 -40 -37 -148
-71 -270 -20 -74 -38 -142 -39 -150 -1 -8 -5 -22 -8 -30 -5 -13 -72 -260 -81
-300 -10 -41 -28 -107 -33 -120 -3 -8 -7 -22 -8 -30 -1 -8 -8 -35 -15 -60 -6
-25 -14 -52 -16 -60 -2 -8 -15 -58 -29 -110 -14 -52 -27 -102 -29 -110 -3 -8
-11 -40 -20 -70 -8 -30 -18 -66 -21 -80 -4 -14 -9 -32 -12 -40 -2 -8 -4 -16
-4 -17 -1 -2 -7 -26 -15 -55 -8 -29 -16 -60 -18 -68 -2 -8 -9 -35 -16 -60 -7
-25 -13 -52 -15 -60 -2 -8 -10 -37 -18 -65 -19 -60 -105 -380 -113 -415 -3
-14 -9 -41 -15 -60 -18 -62 -41 -145 -44 -160 -2 -8 -10 -42 -19 -75 -9 -33
-18 -67 -20 -75 -18 -74 -88 -338 -93 -350 -3 -8 -7 -19 -8 -25 -22 -89 -68
-264 -72 -275 -3 -8 -7 -22 -9 -30 -1 -8 -7 -31 -13 -50 -6 -19 -53 -195 -105
-390 -52 -195 -102 -382 -111 -415 -9 -33 -18 -67 -20 -75 -2 -8 -11 -38 -19
-67 -7 -28 -11 -54 -8 -57 3 -3 -1 -6 -8 -6 -7 0 -11 -3 -8 -6 4 -3 -3 -38
-14 -77 -40 -147 -50 -183 -59 -222 -5 -22 -12 -47 -16 -55 -3 -8 -7 -22 -8
-30 -1 -8 -14 -56 -28 -107 -15 -50 -29 -102 -31 -115 -3 -12 -5 -23 -6 -23
-1 0 -3 -7 -5 -15 -2 -8 -6 -24 -9 -35 -6 -25 -67 -252 -96 -357 -11 -43 -23
-87 -25 -99 -3 -12 -9 -36 -14 -53 -6 -17 -20 -67 -31 -111 -12 -44 -33 -123
-47 -175 -14 -52 -27 -102 -28 -110 -2 -8 -4 -15 -5 -15 -1 0 -3 -7 -5 -15 -1
-8 -19 -76 -40 -150 -20 -74 -38 -142 -39 -150 -1 -9 -5 -20 -8 -25 -3 -6 -9
-26 -13 -45 -4 -19 -32 -125 -62 -235 -30 -110 -57 -211 -60 -225 -7 -36 -9
-43 -16 -60 -5 -12 -47 -170 -62 -232 -3 -16 14 -19 103 -19 9 0 60 0 112 0
109 0 135 0 208 1 29 0 57 -2 61 -5 5 -3 11 -1 13 4 1 5 23 6 48 2 25 -4 59
-4 75 -1 17 3 49 3 73 -1 23 -3 42 -2 42 3 0 5 9 7 20 3 10 -3 43 -6 72 -5 29
0 62 0 73 0 11 -1 27 -1 35 -1 23 1 174 0 185 0 6 -1 39 -1 75 0 36 0 81 0
100 0 19 0 59 1 88 1 29 0 57 -2 62 -5 6 -3 10 -1 10 5 0 7 8 9 20 5 10 -3 43
-6 72 -5 29 0 65 1 79 0 27 0 31 9 63 140 4 14 14 53 76 280 11 41 22 82 24
90 2 8 11 42 20 75 9 33 18 67 21 76 2 9 24 95 50 190 26 96 49 181 51 189 2
8 11 42 20 75 9 33 17 67 19 75 2 8 19 71 38 140 19 69 38 140 42 159 5 24 10
30 15 20 4 -8 33 -108 64 -224 125 -470 171 -639 222 -827 29 -108 55 -208 58
-222 3 -14 9 -40 15 -58 16 -52 41 -141 46 -166 3 -12 8 -32 11 -45 3 -12 7
-29 9 -37 2 -8 4 -16 5 -17 2 -2 3 -6 4 -10 2 -5 8 -26 14 -48 6 -22 13 -49
15 -60 5 -29 27 -106 37 -135 5 -14 12 -36 14 -50 8 -41 65 -255 74 -281 5
-13 10 -27 11 -31 0 -5 1 -9 2 -10 0 -2 2 -10 4 -18 7 -32 75 -288 89 -335 8
-27 17 -61 20 -75 3 -14 19 -74 36 -135 16 -60 33 -121 36 -135 3 -14 6 -29 7
-35 2 -5 6 -16 10 -22 5 -7 6 -13 2 -13 -3 0 1 -16 9 -35 8 -19 13 -35 11 -35
-2 0 1 -15 6 -32 6 -18 12 -41 14 -50 2 -9 13 -50 24 -90 32 -116 52 -188 71
-263 10 -38 28 -106 40 -150 39 -144 84 -314 116 -435 8 -30 17 -62 19 -70 2
-8 23 -82 45 -165 22 -82 42 -154 43 -160 2 -5 7 -25 11 -42 6 -28 10 -31 26
-23 14 8 29 48 31 87 1 5 6 22 13 38 7 17 17 48 21 70 5 22 10 45 11 50 8 28
75 272 78 285 2 8 11 42 20 75 9 33 18 67 20 75 2 8 14 51 26 95 30 111 40
147 45 167 2 10 15 59 29 110 14 51 32 120 41 153 9 33 27 101 41 150 13 50
26 100 29 112 3 12 23 87 44 165 50 181 87 319 116 433 13 50 53 200 90 335
37 135 68 252 70 260 2 8 13 51 25 95 37 136 51 189 55 205 2 8 8 29 13 46 5
17 6 37 1 45 -4 8 -10 26 -12 40 -2 13 -8 33 -12 43 -5 10 -9 28 -10 40 -1 12
-5 28 -8 36 -7 16 -59 212 -70 265 -2 6 -6 16 -11 23 -4 7 -6 16 -3 19 3 3 1
17 -5 32 -11 29 -39 128 -42 151 -1 8 -5 22 -9 30 -4 8 -11 33 -16 55 -5 22
-21 85 -36 140 -15 55 -29 111 -32 124 -2 14 -7 29 -10 35 -4 5 -10 26 -14 45
-4 20 -15 61 -24 91 -9 30 -18 64 -20 75 -2 11 -11 47 -20 80 -10 33 -19 68
-20 78 -2 9 -6 21 -9 25 -3 5 -7 19 -9 33 -3 13 -22 85 -42 159 -20 74 -38
142 -40 150 -2 8 -4 15 -5 15 -1 0 -3 11 -6 25 -2 14 -10 41 -16 60 -7 19 -12
40 -13 45 -2 26 -18 81 -27 93 -6 6 -8 12 -5 12 3 0 -6 42 -20 93 -14 50 -27
99 -29 107 -1 8 -7 30 -13 48 -5 18 -10 34 -11 37 0 3 -2 10 -5 17 -2 7 -10
40 -19 73 -8 33 -24 95 -35 138 -12 42 -30 110 -40 150 -11 39 -29 106 -41
147 -11 41 -23 86 -26 100 -3 14 -12 48 -20 75 -7 28 -14 53 -14 57 -1 4 -8
31 -17 60 -8 29 -17 60 -18 68 -2 8 -4 15 -5 15 -1 0 -3 7 -5 15 -1 8 -21 85
-45 170 -23 85 -43 162 -45 170 -5 21 -51 194 -69 260 -26 94 -95 350 -125
465 -16 61 -39 146 -51 190 -49 183 -62 231 -65 245 -2 8 -4 16 -5 18 -3 3 -6
12 -15 57 -4 22 -10 45 -14 50 -3 6 -6 15 -7 20 -1 6 -7 30 -14 55 -7 25 -13
50 -15 55 -1 6 -5 17 -8 25 -5 14 -24 82 -32 120 -2 8 -11 40 -19 70 -121 447
-184 681 -196 730 -5 19 -22 87 -40 150 -17 63 -42 156 -55 205 -13 50 -31
117 -40 150 -9 33 -25 92 -35 130 -22 83 -45 168 -100 370 -23 83 -43 159 -45
170 -2 11 -13 54 -25 95 -22 78 -28 101 -35 136 -3 12 -11 40 -20 63 -8 23
-14 45 -14 49 0 4 -10 46 -23 95 -22 84 -30 95 -54 79z"/>
<path d="M7473 12057 c-19 -8 -33 -44 -58 -150 -2 -10 -7 -27 -10 -37 -3 -10
-8 -27 -10 -37 -2 -10 -18 -70 -35 -133 -17 -63 -33 -122 -35 -130 -2 -8 -13
-50 -25 -92 -11 -43 -23 -85 -25 -95 -7 -28 -21 -82 -40 -148 -9 -33 -18 -67
-20 -75 -2 -8 -4 -15 -5 -15 -1 0 -3 -9 -5 -20 -2 -11 -16 -63 -31 -115 -14
-52 -27 -102 -28 -110 -1 -9 -5 -20 -8 -25 -4 -8 -13 -45 -22 -95 -1 -3 -5
-11 -9 -17 -5 -7 -6 -13 -3 -13 3 0 -1 -19 -10 -41 -8 -23 -16 -51 -18 -63 -6
-33 -106 -408 -116 -436 -5 -14 -12 -39 -15 -56 -2 -17 -11 -49 -19 -72 -8
-23 -13 -42 -9 -42 3 0 0 -7 -7 -15 -7 -8 -10 -15 -7 -15 3 0 1 -15 -4 -32 -6
-18 -12 -41 -14 -51 -2 -10 -14 -52 -25 -95 -37 -133 -102 -376 -105 -395 -2
-9 -6 -21 -9 -25 -3 -5 -7 -19 -10 -33 -2 -13 -16 -67 -31 -119 -14 -52 -28
-103 -30 -113 -2 -10 -7 -27 -10 -37 -3 -10 -1 -35 4 -56 10 -37 37 -141 46
-174 2 -8 18 -67 35 -130 17 -63 33 -122 35 -130 2 -8 12 -44 21 -80 9 -36 18
-72 21 -80 4 -8 7 -19 8 -25 2 -5 11 -39 20 -75 9 -36 19 -73 20 -83 2 -9 6
-21 9 -25 3 -5 8 -22 11 -38 2 -16 28 -112 56 -214 27 -102 52 -192 54 -200 2
-8 13 -51 25 -95 12 -44 28 -105 36 -135 9 -30 17 -66 20 -79 3 -14 7 -28 10
-33 3 -4 7 -16 9 -26 2 -10 18 -72 35 -137 17 -65 33 -125 35 -134 2 -9 13
-50 25 -91 22 -79 29 -105 35 -130 2 -8 4 -15 5 -15 1 0 3 -9 5 -20 2 -11 16
-63 30 -115 15 -52 28 -104 30 -115 2 -11 13 -51 25 -90 11 -38 22 -79 25 -90
5 -22 17 -68 69 -260 51 -192 87 -328 92 -345 2 -8 11 -42 20 -75 9 -33 18
-67 19 -75 2 -8 4 -15 5 -15 1 0 3 -7 5 -15 4 -18 79 -301 101 -380 9 -30 17
-59 18 -65 2 -5 6 -23 11 -40 4 -16 34 -129 67 -250 55 -206 63 -236 73 -275
2 -8 4 -15 5 -15 1 0 3 -7 5 -15 7 -39 49 -187 55 -199 5 -10 25 -13 66 -12
120 2 165 2 173 -4 5 -3 11 -1 13 4 1 5 23 6 48 2 25 -4 59 -4 75 -1 17 3 49
3 73 -1 23 -3 42 -2 42 3 0 5 9 7 20 3 10 -3 43 -6 72 -5 29 0 62 0 73 0 11
-1 27 -1 35 -1 23 1 174 0 185 0 6 -1 39 -1 75 0 36 0 81 0 100 0 19 0 59 1
88 1 29 0 57 -2 61 -5 5 -3 11 -1 13 4 1 5 23 6 48 2 25 -4 59 -4 75 -1 17 3
49 3 72 -1 23 -3 44 -2 45 2 2 4 23 4 48 0 25 -4 59 -4 75 -1 17 4 42 3 56 -1
25 -7 26 -6 19 25 -4 17 -13 45 -20 61 -6 17 -11 30 -10 30 1 0 -1 11 -4 25
-3 14 -8 34 -10 45 -1 11 -5 27 -8 35 -3 8 -15 51 -27 95 -11 44 -30 114 -42
155 -11 41 -22 85 -24 97 -2 12 -10 44 -18 70 -14 43 -28 99 -29 113 0 3 -4
15 -9 28 -5 12 -11 33 -14 45 -2 12 -16 65 -31 117 -14 52 -28 106 -30 119 -3
13 -9 32 -15 43 -5 10 -8 18 -5 18 3 0 0 15 -5 33 -12 37 -14 44 -33 117 -8
30 -22 82 -31 115 -9 33 -18 67 -21 75 -2 8 -8 31 -12 50 -5 19 -24 88 -41
153 -18 64 -34 125 -36 135 -2 9 -14 51 -25 92 -12 41 -23 82 -25 90 -2 8 -24
94 -50 190 -26 96 -49 182 -50 190 -2 8 -4 15 -5 15 -1 0 -3 7 -5 15 -2 8 -17
67 -34 130 -18 63 -34 123 -36 132 -2 10 -16 62 -30 115 -15 54 -29 105 -30
113 -2 8 -8 30 -14 48 -5 18 -10 34 -11 37 0 3 -2 10 -5 17 -2 7 -10 40 -19
73 -8 33 -22 87 -32 120 -9 33 -18 68 -20 78 -8 36 -13 53 -28 107 -8 30 -24
89 -35 132 -12 42 -25 87 -30 100 -5 12 -9 26 -9 31 -1 24 -22 106 -40 157 -7
20 -21 86 -24 107 0 5 -5 19 -10 33 -8 20 -57 196 -72 260 -2 8 -11 42 -21 75
-9 33 -18 69 -20 80 -2 11 -11 45 -20 75 -9 30 -20 71 -25 90 -15 62 -80 305
-87 320 -3 8 -7 22 -8 30 -6 28 -14 63 -31 119 -9 31 -18 63 -19 71 -6 27 -43
164 -54 198 -5 18 -10 36 -11 40 -4 26 -14 62 -26 95 -8 20 -12 37 -9 37 2 0
0 11 -5 25 -5 14 -12 36 -15 48 -4 21 -31 125 -40 157 -35 125 -87 321 -91
340 -3 14 -9 39 -14 55 -5 17 -17 57 -25 90 -9 33 -28 103 -42 155 -14 52 -27
102 -28 110 -2 8 -4 15 -5 15 -1 0 -3 7 -5 15 -1 8 -10 42 -20 75 -9 33 -19
71 -22 85 -2 14 -6 31 -9 38 -2 7 -4 14 -4 17 -1 3 -6 19 -11 37 -6 18 -12 41
-15 51 -9 35 -57 215 -105 390 -17 61 -32 121 -34 132 -6 29 -11 48 -18 65 -3
8 -12 42 -21 75 -8 33 -24 94 -35 135 -11 41 -21 78 -21 81 0 9 -23 7 -47 -4z"/>
</g>
</svg>
